<svg xmlns="http://www.w3.org/2000/svg" xmlns:xlink="http://www.w3.org/1999/xlink" version="1.1" x="0px" y="0px" viewBox="0 0 100 125" enable-background="new 0 0 100 100" xml:space="preserve"><g><g><path fill="#000000" d="M84.62402,79.76416l-1.06836-1.92334c0.45801-0.84326,0.74072-1.76221,0.69287-2.72412    c-0.17236-3.4541-3.2041-7.65625-5.20996-10.43652L78.72852,64.25c-1.96143-2.72949-19.27588-17.8374-20.01172-18.47949    c-0.01367-0.01172-0.02734-0.02295-0.04102-0.03369c-3.54004-4.97412-7.72705-10.46973-10.62744-13.43604    c-3.30225-3.37744-2.64209-11.96582-2.63525-12.05225c0.04492-0.55029-0.36426-1.0332-0.91455-1.07861    c-0.56787-0.04443-1.0332,0.36426-1.07861,0.91406c-0.02344,0.28125-0.38965,5.13916,0.88086,9.33984    c-3.45703-1.04541-8.64453-1.21777-9.33691-1.23584c-1.79834-1.31738-3.20947-2.35498-3.94971-2.90625    c-5.47168-4.07617-13.0332-3.47314-13.35059-3.44434c-0.49658,0.04297-0.88525,0.44482-0.91211,0.94189    c-0.01416,0.26611-0.31152,6.57568,3.27002,11.55469c1.5625,2.17236,4.60547,6.08936,8.10449,10.26025    c-0.95703-0.06299-1.84326-0.08936-2.01562-0.09375c-0.35986-0.02344-0.69922,0.17627-0.88477,0.48584    s-0.18945,0.6958-0.01074,1.00928c2.4248,4.24854,7.00146,9.43018,10.7168,12.875    c-13.44434-2.92139-21.23779-3.03369-21.58936-3.03711c-0.00293,0-0.00586,0-0.00879,0c-0.54834,0-0.99512,0.44189-1,0.99121    c-0.00488,0.55225,0.43896,1.00391,0.99121,1.00879c0.0498,0.00049,2.8418,0.04199,7.87012,0.67578    c0.74463,0.3916,8.67773,4.57275,12.35059,6.91699c2.96387,1.89209,6.05225,3.6626,8.94824,5.29346    c0.58154,0.32764,1.16602,0.66357,1.75391,1.00098c2.91211,1.67285,5.92383,3.40234,9.13184,4.46875    c0.83984,0.27881,1.69434,0.49609,2.52051,0.70605c0.31299,0.07959,0.62549,0.15918,0.93701,0.2417    c0.19678,0.05225,0.39893,0.11084,0.60449,0.16992c0.82275,0.23682,1.75586,0.50537,2.68359,0.50537l0,0    c2.34131,1.44287,4.74121,2.74072,7.26953,3.78027c1.90381,0.78271,4.52246,1.69873,7.26172,1.69873    c0.88525,0,1.78369-0.0957,2.67432-0.32227c0.00732-0.00195,0.01221-0.00732,0.01953-0.00928l2.20264,1.10107    C80.69434,84.13135,80.84717,84.1665,81,84.1665c0.19189,0,0.38281-0.05518,0.54883-0.16406    c0.92578-0.60742,3.09131-2.18311,3.19873-3.68115C84.76123,80.12793,84.71826,79.93408,84.62402,79.76416z M45.18066,31.92432    c0.06006,0.03516,0.12354,0.05713,0.18701,0.07861c0.35352,0.62598,0.7666,1.20068,1.25098,1.69629    c1.76123,1.80127,4.02393,4.58252,6.32373,7.60889c-4.1123-2.99561-10.18604-7.42236-14.98926-10.93311    C40.53711,30.60693,43.73535,31.07422,45.18066,31.92432z M21.64551,33.16602c-1.10938-1.54199-1.78467-3.25488-2.20996-4.83838    c0.53125-0.23193,1.32129-0.68652,1.88867-1.51123c0.3125-0.45508,0.19727-1.07764-0.25781-1.39062    c-0.45459-0.31104-1.07764-0.19727-1.39062,0.25781c-0.18848,0.27441-0.44092,0.47363-0.6748,0.61719    c-0.16016-1.01416-0.229-1.89795-0.24951-2.50391c1.88965-0.01953,6.38574,0.20996,10.05762,2.41992    c-0.03613,0.05176-0.08252,0.09375-0.10938,0.15381c-0.32617,0.73486-1.10059,1.12891-1.12305,1.13965    c-0.49414,0.23828-0.70459,0.83154-0.46924,1.32861c0.1709,0.36133,0.52979,0.57227,0.9043,0.57227    c0.14355,0,0.28906-0.03076,0.42725-0.09619c0.1416-0.06689,1.3501-0.6792,2.00146-1.96924    c1.5752,1.16406,4.54932,3.34131,7.94824,5.82422c-0.35059,0.66064-1.04102,1.01758-1.06201,1.02783    c-0.49414,0.23828-0.70459,0.83154-0.46924,1.32861c0.1709,0.36133,0.52979,0.57227,0.9043,0.57227    c0.14355,0,0.28906-0.03076,0.42725-0.09619c0.12939-0.06104,1.15479-0.57129,1.82764-1.64355    c1.07617,0.78564,2.17627,1.58838,3.27344,2.38818c-0.3418,0.69189-1.06641,1.06543-1.08838,1.07568    c-0.49414,0.23828-0.70459,0.83154-0.46924,1.32861c0.1709,0.36133,0.52979,0.57227,0.9043,0.57227    c0.14355,0,0.28906-0.03076,0.42725-0.09619c0.13135-0.06201,1.18213-0.58936,1.854-1.69287    c1.99463,1.45459,3.92285,2.85986,5.61621,4.09375c-0.38574,0.60498-1.05029,0.91211-1.07617,0.92383    c-0.50537,0.21484-0.74365,0.79785-0.53174,1.30518c0.16016,0.38428,0.53174,0.61572,0.92334,0.61572    c0.12842,0,0.25879-0.0249,0.38428-0.07764c0.13379-0.05566,1.19824-0.52734,1.92041-1.58691    c2.50391,1.82373,4.19629,3.05566,4.25732,3.1001c0.09912,0.07227,0.20898,0.11621,0.32031,0.14746    c0.00195,0.00244,0.00391,0.00537,0.00586,0.00781c-0.06104,0.06689-0.12598,0.13086-0.16846,0.21582    c-0.3584,0.71533-1.14551,1.07227-1.17383,1.08496c-0.50537,0.21484-0.74365,0.79785-0.53174,1.30518    c0.16016,0.38428,0.53174,0.61572,0.92334,0.61572c0.12842,0,0.25879-0.0249,0.38428-0.07764    c0.12598-0.05273,1.07666-0.47998,1.79053-1.41455c0.3877,0.55225,0.76807,1.09717,1.13135,1.62451    c1.08594,1.57471,2.58789,4.17969,4.14551,7.02002c-0.06152,0.06689-0.12646,0.13135-0.16943,0.2168    c-0.3584,0.71533-1.14551,1.07227-1.17383,1.08496c-0.50537,0.21484-0.74365,0.79785-0.53174,1.30518    c0.16016,0.38428,0.53174,0.61572,0.92334,0.61572c0.12842,0,0.25879-0.0249,0.38428-0.07764    c0.11621-0.04834,0.93555-0.41357,1.62256-1.20312c0.95312,1.77148,1.89502,3.56104,2.74902,5.19971    c-2.55957-0.59033-6.53955-1.63232-10.84229-2.79736c0.37012-0.31689,0.75342-0.73926,1.03174-1.29443    c0.24756-0.49365,0.04785-1.09473-0.44629-1.3418c-0.49414-0.24756-1.09473-0.04785-1.3418,0.44629    c-0.3584,0.71533-1.14551,1.07227-1.17383,1.08496c-0.21631,0.0918-0.37061,0.25879-0.47461,0.45068    c-3.66455-1.00244-7.3999-2.04492-10.56152-2.93457c-0.06348-0.1416-0.1499-0.27393-0.27979-0.37695    c-2.75098-2.18018-6.27051-5.84082-9.70215-9.7251c0.44482-0.26025,1.34863-0.89551,1.83789-1.99658    c0.22412-0.50439-0.00342-1.0957-0.5083-1.31982c-0.50391-0.22363-1.09521,0.00342-1.31982,0.5083    c-0.32617,0.73486-1.10059,1.12891-1.12305,1.13965c-0.08154,0.03955-0.14258,0.10059-0.20801,0.15723    C27.56348,40.93311,23.52295,35.77637,21.64551,33.16602z M35.14502,55.29883c-2.61084-2.66895-5.33154-5.86426-7.21533-8.71289    c0.83496,0.05322,1.63281,0.12744,1.99414,0.21777c0.02881,0.00732,0.05664-0.00049,0.08545,0.00439    c2.99414,3.47852,6.17334,6.95215,8.96582,9.58203C36.76953,55.76416,35.33105,55.35205,35.14502,55.29883z M55.01025,74.2915    c-3.01709-1.00293-5.93994-2.68164-8.76709-4.30518c-0.59229-0.34033-1.18164-0.67871-1.76807-1.00879    c-2.87061-1.61719-5.93018-3.37109-8.85352-5.23682c-1.94189-1.23975-4.9707-2.93994-7.5708-4.36084    c3.2002,0.54248,6.89111,1.26904,11.05127,2.25928c0.01953,0.00488,0.03906,0.00342,0.05859,0.00684    c4.77734,3.93213,9.75,7.62256,14.06641,10.76514c1.06982,0.77881,2.1377,1.5459,3.20947,2.29736    C55.95312,74.57959,55.47754,74.44678,55.01025,74.2915z M69.15527,79.74316c-5.21875-2.14648-9.95557-5.45801-14.75146-8.94922    c-4.77246-3.47461-10.35303-7.61865-15.55762-12.0083c-0.18799-0.15869-0.39258-0.34717-0.58789-0.51855    c7.67822,2.18066,24.9375,7.03125,29.97998,8.01709c0.33398,0.646,0.64551,1.25,0.91943,1.78174    c0.63135,1.22559,1.09229,2.11963,1.29785,2.49658c0.83057,1.52295,4.93896,8.17529,6.46094,10.63281    C74.11133,81.57715,71.18799,80.5791,69.15527,79.74316z M72.21143,69.60449c-0.20215-0.37061-0.65479-1.24951-1.27588-2.45459    c-1.89014-3.66895-5.36572-10.41406-8.08545-15.0752c5.81445,5.16162,13.14795,11.80273,14.25439,13.34229l0.31201,0.43311    c1.86816,2.58984,4.69189,6.50293,4.83496,9.36621c0.0918,1.84619-2.12256,3.87109-3.61475,4.95801    C77.13574,77.75,73.01025,71.06836,72.21143,69.60449z M80.91602,82.00684l-0.83008-0.41504    c0.64941-0.48779,1.44727-1.15674,2.1748-1.96289l0.40527,0.72949C82.41797,80.75537,81.70215,81.42969,80.91602,82.00684z"/><path fill="#000000" d="M25.11768,28.00928c0.26416-0.48535,0.08447-1.09229-0.40039-1.35645    c-0.48584-0.26367-1.09229-0.08545-1.35645,0.40039c-0.3833,0.7041-1.18311,1.03418-1.20996,1.04492    c-0.5127,0.19775-0.77002,0.77246-0.57568,1.28662c0.15137,0.40039,0.53174,0.64697,0.93555,0.64697    c0.11768,0,0.2373-0.021,0.35352-0.06494C23.01758,29.90869,24.38135,29.3623,25.11768,28.00928z"/><path fill="#000000" d="M26.45703,30.2998c-0.50244-0.22266-1.09521,0.00293-1.31982,0.5083    c-0.32617,0.73486-1.10059,1.12891-1.12305,1.13965c-0.49414,0.23828-0.70459,0.83154-0.46924,1.32861    c0.1709,0.36133,0.52979,0.57227,0.9043,0.57227c0.14355,0,0.28906-0.03076,0.42725-0.09619    c0.14795-0.06982,1.46338-0.72461,2.08887-2.13281C27.18945,31.11523,26.96191,30.52393,26.45703,30.2998z"/><path fill="#000000" d="M32.01953,30.9248c-0.50293-0.22217-1.0957,0.00342-1.31982,0.5083    c-0.32617,0.73486-1.10059,1.12891-1.12305,1.13965c-0.49414,0.23828-0.70459,0.83154-0.46924,1.32861    c0.1709,0.36133,0.52979,0.57227,0.9043,0.57227c0.14355,0,0.28906-0.03076,0.42725-0.09619    c0.14795-0.06982,1.46338-0.72461,2.08887-2.13281C32.75195,31.74023,32.52441,31.14893,32.01953,30.9248z"/><path fill="#000000" d="M30.58203,35.9248c-0.50293-0.22217-1.0957,0.00391-1.31982,0.5083    c-0.32617,0.73486-1.10059,1.12891-1.12305,1.13965c-0.49414,0.23828-0.70459,0.83154-0.46924,1.32861    c0.1709,0.36133,0.52979,0.57227,0.9043,0.57227c0.14355,0,0.28906-0.03076,0.42725-0.09619    c0.14795-0.06982,1.46338-0.72461,2.08887-2.13281C31.31445,36.74023,31.08691,36.14893,30.58203,35.9248z"/><path fill="#000000" d="M32.23242,37.02637c0.1709,0.36133,0.52979,0.57227,0.9043,0.57227    c0.14355,0,0.28906-0.03076,0.42725-0.09619c0.14795-0.06982,1.46338-0.72461,2.08887-2.13281    c0.22412-0.50439-0.00342-1.0957-0.5083-1.31982c-0.50244-0.22363-1.09521,0.00342-1.31982,0.5083    c-0.32617,0.73486-1.10059,1.12891-1.12305,1.13965C32.20752,35.93604,31.99707,36.5293,32.23242,37.02637z"/><path fill="#000000" d="M32.69922,42.22363c0.14355,0,0.28906-0.03076,0.42725-0.09619    c0.14795-0.06982,1.46338-0.72461,2.08887-2.13281c0.22412-0.50439-0.00342-1.0957-0.5083-1.31982    c-0.50391-0.22412-1.09521,0.00342-1.31982,0.5083c-0.32617,0.73486-1.10059,1.12891-1.12305,1.13965    c-0.49414,0.23828-0.70459,0.83154-0.46924,1.32861C31.96582,42.0127,32.32471,42.22363,32.69922,42.22363z"/><path fill="#000000" d="M38.01172,41.78613c0.14355,0,0.28906-0.03076,0.42725-0.09619    c0.14795-0.06982,1.46338-0.72461,2.08887-2.13281c0.22412-0.50439-0.00342-1.0957-0.5083-1.31982    c-0.50244-0.22363-1.09521,0.00342-1.31982,0.5083c-0.32617,0.73486-1.10059,1.12891-1.12305,1.13965    c-0.49414,0.23828-0.70459,0.83154-0.46924,1.32861C37.27832,41.5752,37.63721,41.78613,38.01172,41.78613z"/><path fill="#000000" d="M39.07471,45.87061c-0.32617,0.73486-1.10059,1.12891-1.12305,1.13965    c-0.49414,0.23828-0.70459,0.83154-0.46924,1.32861c0.1709,0.36133,0.52979,0.57227,0.9043,0.57227    c0.14355,0,0.28906-0.03076,0.42725-0.09619c0.14795-0.06982,1.46338-0.72461,2.08887-2.13281    c0.22412-0.50439-0.00342-1.0957-0.5083-1.31982C39.89209,45.13867,39.29932,45.36572,39.07471,45.87061z"/><path fill="#000000" d="M43.69922,46.47363c0.14355,0,0.28906-0.03076,0.42725-0.09619    c0.14795-0.06982,1.46338-0.72461,2.08887-2.13281c0.22412-0.50439-0.00342-1.0957-0.5083-1.31982    c-0.50293-0.22266-1.09521,0.00293-1.31982,0.5083c-0.32617,0.73486-1.10059,1.12891-1.12305,1.13965    c-0.49414,0.23828-0.70459,0.83154-0.46924,1.32861C42.96582,46.2627,43.32471,46.47363,43.69922,46.47363z"/><path fill="#000000" d="M40.80127,52.31982c0.16016,0.38428,0.53174,0.61572,0.92334,0.61572    c0.12842,0,0.25879-0.0249,0.38428-0.07764c0.15137-0.06299,1.49609-0.65527,2.18604-2.03271    c0.24756-0.49365,0.04785-1.09473-0.44629-1.3418c-0.49365-0.24756-1.09473-0.04785-1.3418,0.44629    c-0.3584,0.71533-1.14551,1.07227-1.17383,1.08496C40.82764,51.22949,40.58936,51.8125,40.80127,52.31982z"/><path fill="#000000" d="M49.59961,50.93555c0.12842,0,0.25879-0.0249,0.38428-0.07764    c0.15137-0.06299,1.49609-0.65527,2.18604-2.03271c0.24756-0.49365,0.04785-1.09473-0.44629-1.3418    c-0.49316-0.24902-1.09424-0.04736-1.3418,0.44629c-0.3584,0.71533-1.14551,1.07227-1.17383,1.08496    c-0.50537,0.21484-0.74365,0.79785-0.53174,1.30518C48.83643,50.7041,49.20801,50.93555,49.59961,50.93555z"/><path fill="#000000" d="M47.41211,56.81055c0.12842,0,0.25879-0.0249,0.38428-0.07764    c0.15137-0.06299,1.49609-0.65527,2.18604-2.03271c0.24756-0.49365,0.04785-1.09473-0.44629-1.3418    c-0.49316-0.24805-1.09473-0.04785-1.3418,0.44629c-0.3584,0.71533-1.14551,1.07227-1.17383,1.08496    c-0.50537,0.21484-0.74365,0.79785-0.53174,1.30518C46.64893,56.5791,47.02051,56.81055,47.41211,56.81055z"/><path fill="#000000" d="M52.30127,54.69482c0.16016,0.38428,0.53174,0.61572,0.92334,0.61572    c0.12842,0,0.25879-0.0249,0.38428-0.07764c0.15137-0.06299,1.49609-0.65527,2.18604-2.03271    c0.24756-0.49365,0.04785-1.09473-0.44629-1.3418c-0.49365-0.24902-1.09473-0.04736-1.3418,0.44629    c-0.3584,0.71533-1.14551,1.07227-1.17383,1.08496C52.32764,53.60449,52.08936,54.1875,52.30127,54.69482z"/><path fill="#000000" d="M57.47461,57.43555c0.12842,0,0.25879-0.0249,0.38428-0.07764    c0.15137-0.06299,1.49609-0.65527,2.18604-2.03271c0.24756-0.49365,0.04785-1.09473-0.44629-1.3418    c-0.49268-0.24854-1.09521-0.04736-1.3418,0.44629c-0.3584,0.71533-1.14551,1.07227-1.17383,1.08496    c-0.50537,0.21484-0.74365,0.79785-0.53174,1.30518C56.71143,57.2041,57.08301,57.43555,57.47461,57.43555z"/></g></g><text x="0" y="115" fill="#000000" font-size="5px" font-weight="bold" font-family="'Helvetica Neue', Helvetica, Arial-Unicode, Arial, Sans-serif">Created by Yu luck</text><text x="0" y="120" fill="#000000" font-size="5px" font-weight="bold" font-family="'Helvetica Neue', Helvetica, Arial-Unicode, Arial, Sans-serif">from the Noun Project</text></svg>