<?xml version="1.0" encoding="utf-8"?>
<!-- Generator: Adobe Illustrator 21.1.0, SVG Export Plug-In . SVG Version: 6.00 Build 0)  -->
<svg version="1.1" id="Layer_1" xmlns="http://www.w3.org/2000/svg" xmlns:xlink="http://www.w3.org/1999/xlink" x="0px" y="0px"
	 viewBox="0 0 993 769" style="enable-background:new 0 0 993 769;" xml:space="preserve">
<style type="text/css">
	.st0{fill:#020000;stroke:#000000;stroke-width:2;stroke-miterlimit:10;}
	.st1{fill:none;stroke:#000000;stroke-width:5;stroke-miterlimit:10;}
</style>
<g>
	<path class="st0" d="M671.2,324.7c3.6-5,15.1-9.3,18-2.9c4.3,9.3-1.4,16.5,7.9,34.5c18.7,35.2-16.5,82.7-67.6,99.2
		c-41,12.9-85.5,13.7-106.4-13.7c-2.2-2.9-10.8-13.7-5-17.3c-15.8-12.2-30.2-40.3-13.7-38.1c-19.4-18-29.5-58.2-7.2-46.7
		c40.3,20.8,85.5,45.3,136.6,22.3C662.6,348.5,659,336.2,671.2,324.7z M676.3,346.3c0,28-28,55.4-51.8,67.6
		c-29.5,15.8-84.1,15.8-94.9,14.4c-6.5-1.4-10.8-1.4-6.5,5c5,8.6,19.4,22.3,43.1,25.2c41,5,102.1-14.4,123.6-55.4
		c9.3-19.4,10.1-37.4,0-49.6c-7.2-7.9-1.4-29.5-5-29.5C681.3,324,677,339.1,676.3,346.3z M524.6,423.2c30.2,0.7,62.5,0,89.9-10.1
		c13.7-5,30.9-17.3,43.1-33.1c12.2-15.1,13.7-23,14.4-36.7c-7.2,29.5-44.6,52.5-71.9,57.5c-33.8,5.8-91.3-8.6-91.3-8.6
		C493.7,389.4,519.5,421.1,524.6,423.2z M668.3,336.2c-7.9,12.9-11.5,20.8-33.1,30.2c-52.5,24.4-99.9-1.4-141.6-23l0,0
		c-11.5-5.8,0.7,41.7,29.5,46.7c46.7,9.3,84.1,15.1,122.2-16.5C664.8,357.8,663.3,352.1,668.3,336.2z"/>
</g>
<circle class="st1" cx="593.4" cy="391.4" r="153.4"/>
</svg>
