<svg xmlns="http://www.w3.org/2000/svg" xmlns:xlink="http://www.w3.org/1999/xlink" version="1.1" x="0px" y="0px" viewBox="0 0 100 125" style="enable-background:new 0 0 100 100;" xml:space="preserve"><style type="text/css">
	.st0{display:none;}
</style><g><path d="M84.6,17.3c-0.5-0.5-2-1.9,1.8-5.7h0c1.1-1.1,1.3-2.7,0.7-4.1c-0.7-1.4-2.1-2.2-3.6-2c-27.8,2.7-36,18.9-38.3,28.4   c-5.3,21.2-15.5,34.7-31.3,41.3c-1,0.4-2,0.8-3.1,1.2c-1.6,0.6-2.8,2-3.1,3.7c-0.3,1.7,0.5,3.5,1.9,4.5c6,4.4,16,9.9,29,9.9   c7.6,0,16.2-1.9,25.6-6.9c20.7-11.1,26.1-28.9,27.5-38.4C93.6,36.4,90.7,23.3,84.6,17.3z M88.8,48.8c-1.3,9-6.4,25.7-26,36.2   c-24,12.9-42.5,3.8-51.4-2.7c-0.5-0.4-0.8-1-0.7-1.7c0-0.3,0.2-1,1.1-1.4c1.1-0.4,2.2-0.8,3.3-1.3c16.6-7,27.4-21.2,33-43.4   c2.2-8.7,9.7-23.6,35.7-26.1c0,0,0,0,0.1,0c0.3,0,0.4,0.2,0.5,0.3c0.1,0.1,0.1,0.4-0.1,0.7h0c-5,5.1-3.2,8.4-1.7,10   C87.1,24,90.7,35.5,88.8,48.8z"/><path d="M69.8,29c-0.8-0.1-1.5,0.5-1.6,1.4c-0.1,0.8,0.5,1.5,1.4,1.6c4,0.3,7.6,2.3,10,5.5c0.3,0.4,0.7,0.6,1.2,0.6   c0.3,0,0.6-0.1,0.9-0.3c0.7-0.5,0.8-1.4,0.3-2.1C79.1,31.8,74.6,29.4,69.8,29z"/><path d="M73.4,22.9c0.3,0.4,0.7,0.6,1.2,0.6c0.3,0,0.6-0.1,0.9-0.3c0.7-0.5,0.8-1.4,0.3-2.1c-1.7-2.2-4.2-3.7-7-3.9   c-0.8-0.1-1.5,0.5-1.6,1.4c-0.1,0.8,0.5,1.5,1.4,1.6C70.5,20.4,72.3,21.3,73.4,22.9z"/><path d="M49.2,66.4c-0.8-0.1-1.5,0.5-1.6,1.4c-0.1,0.8,0.5,1.5,1.4,1.6c4,0.3,7.6,2.3,10,5.5c0.3,0.4,0.7,0.6,1.2,0.6   c0.3,0,0.6-0.1,0.9-0.3c0.7-0.5,0.8-1.4,0.3-2.1C58.4,69.3,54,66.8,49.2,66.4z"/><path d="M74.2,47.3c-0.8-0.1-1.6,0.5-1.6,1.4c-0.1,0.8,0.5,1.5,1.4,1.6c1.8,0.1,3.4,1,4.5,2.5c0.3,0.4,0.7,0.6,1.2,0.6   c0.3,0,0.6-0.1,0.9-0.3c0.7-0.5,0.8-1.4,0.3-2.1C79.2,48.8,76.8,47.5,74.2,47.3z"/><path d="M57.5,57.9c0.3,0.4,0.7,0.6,1.2,0.6c0.3,0,0.6-0.1,0.9-0.3c0.7-0.5,0.8-1.4,0.3-2.1c-2.9-3.9-7.3-6.3-12.2-6.7   c-0.8-0.1-1.5,0.5-1.6,1.4c-0.1,0.8,0.5,1.5,1.4,1.6C51.5,52.7,55.1,54.7,57.5,57.9z"/><path d="M37.1,75.7c-0.8-0.1-1.5,0.5-1.6,1.4c-0.1,0.8,0.5,1.5,1.4,1.6c1.6,0.1,3.1,0.9,4.1,2.2c0.3,0.4,0.7,0.6,1.2,0.6   c0.3,0,0.6-0.1,0.9-0.3c0.7-0.5,0.8-1.4,0.3-2.1C41.9,77.1,39.6,75.9,37.1,75.7z"/></g><text x="0" y="115" fill="#000000" font-size="5px" font-weight="bold" font-family="'Helvetica Neue', Helvetica, Arial-Unicode, Arial, Sans-serif">Created by A. Stone</text><text x="0" y="120" fill="#000000" font-size="5px" font-weight="bold" font-family="'Helvetica Neue', Helvetica, Arial-Unicode, Arial, Sans-serif">from the Noun Project</text></svg>