<?xml version="1.0" encoding="utf-8"?>
<!-- Generator: Adobe Illustrator 21.1.0, SVG Export Plug-In . SVG Version: 6.00 Build 0)  -->
<svg version="1.1" id="Layer_1" xmlns="http://www.w3.org/2000/svg" xmlns:xlink="http://www.w3.org/1999/xlink" x="0px" y="0px"
	 viewBox="0 0 457 364" style="enable-background:new 0 0 457 364;" xml:space="preserve">
<style type="text/css">
	.st0{fill:none;stroke:#000000;stroke-width:5;stroke-miterlimit:10;}
</style>
<g>
	<path d="M246.9,166.1c-0.1-1-0.9-1.8-2-1.8c-1,0-1.9,0.9-1.8,2c0,0,0,2.9-3.5,8.6c-3,5-9.9,5.3-12.1,5.3c-1-1.2-1.3-2.6-1.1-4.3
		c0.7-4.8,5.9-10.1,9.2-11.8c1.2-0.6,5.5-2,8.3-2c0.8,0,1.5-0.5,1.8-1.3c0.3-0.8,0-1.6-0.6-2.1c-2.1-1.6-21.6-10.5-25.7-12.4
		c-7.9-4.6-53.6-20.9-55.9-21.7c-11.1-4.7-55.6-17.5-57.5-18.1c0,0-0.1,0-0.1,0c0,0,0,0-0.1,0l-10.4-2c-0.5-0.1-1.1,0-1.5,0.4
		c-4.4,3.5-6.9,12.4-7.2,13.4c-0.3,1,0.3,2.1,1.4,2.3c1,0.3,2.1-0.3,2.3-1.4c0.6-2.2,2.6-8.2,5.2-10.8l7.2,1.4
		c-1.2,3.3-2.9,8.8-3.2,12.6c-2.4-1-3.9-1.7-4.2-1.8c-0.5-0.2-1.1-0.2-1.6,0c-5.7,2.6-15.3,10.9-10.8,23.4c0.2,0.4,0.5,0.8,0.9,1
		l35.5,19.7c0,0,0,0,0,0c0.3,0.2,7.4,4.1,11.7,5.9c4.2,1.7,50.7,25.1,51.1,25.4c0.1,0.1,0.3,0.1,0.5,0.2c1.2,0.6,2.5,0.9,4.1,0.9
		c1.1,0,2.3-0.1,3.5-0.4c2-0.5,4.1-1.3,5.8-2.3c4.2-2.4,10.2-10,9.7-16.2c-0.2-2.8-1.8-5.1-4.5-6.3c0,0-0.1-0.1-0.1-0.1
		c-4.7-2.9-16.6-8.8-17.1-9c0,0,0,0,0,0c0,0,0,0,0,0c-1.9-0.9-14.1-6.5-25.9-12c0-0.1,0-0.2-0.1-0.2c-3.5-8.2,3-18.5,5.4-21.8
		c7.2,2.6,42.1,15.1,52.2,20c-2.4,3.6-7.1,12.2-5.9,21.9l-3.1-1.2c-1-0.4-2.1,0.1-2.5,1.1c-0.4,1,0.1,2.1,1.1,2.5l6.2,2.5l14.1,8.2
		c0,0,0.1,0,0.1,0c0.1,0,0.1,0.1,0.2,0.1c0.1,0,0.3,0.1,0.4,0.1c0,0,0.1,0,0.1,0c0.1,0,0.6,0.1,1.5,0.1c3.3,0,11.1-0.7,15-7.1
		C247,170,246.9,166.4,246.9,166.1z M194.2,191c-1.4,0.8-3.2,1.5-4.8,1.9c0,0,0,0,0,0c-2.3,0.5-4.2,0.4-5.3-0.3
		c-2.1-1.3-1.7-5.5-1-7.8c1.1-3.7,3.4-6.9,6.5-9.1c1.4-1,3.2-1.5,5.1-1.5c1.5,0,3,0.3,4.5,0.9c1.8,0.7,2.6,1.7,2.8,3.3
		C202.3,182.7,197.5,189.2,194.2,191z M170.2,182.9c0.1,1,0.9,1.7,1.9,1.7c0.1,0,0.1,0,0.2,0c1.1-0.1,1.8-1,1.7-2.1
		c-0.7-7.4,6.9-13.9,9.5-15.9c1.6,0.8,4.8,2.4,8.1,4.1c-1.5,0.4-2.9,1-4.1,1.8c-3.7,2.6-6.6,6.6-7.9,11.1c-0.5,1.6-0.9,4-0.6,6.3
		c-12.4-6.2-42.7-21.4-46.2-22.9c-3.1-1.3-7.9-3.8-10.1-5c0.9-4.4,3.5-12.8,7.6-15.5c0.9-0.6,1.1-1.8,0.6-2.7
		c-0.6-0.9-1.8-1.1-2.7-0.6c-5.2,3.4-7.9,12.3-9,16.7l-32.5-18.1c-3.2-10.3,5.6-16.1,8.3-17.6c5.1,2.2,32.4,14.1,38.5,18.8
		c0.1,0.1,0.2,0.2,0.4,0.2c0,0,35.1,16.2,45.9,21.2C175.8,168,169.4,174.8,170.2,182.9z M153.6,148.5c-9-4.2-16.8-7.8-18.1-8.4
		c-5.2-3.9-21.9-11.5-32-16c-0.3-2.1,1.3-8.1,3.2-13.4c7.9,2.3,40.9,11.9,53.1,16.5C157.1,131.2,152,140.1,153.6,148.5z
		 M219.2,150.4c6.9,3.2,14.2,6.6,18.8,8.8c-1.8,0.5-3.3,1-4.1,1.4c-4.1,2-10.3,8.2-11.3,14.6c-0.1,0.7-0.1,1.4-0.1,2.1l-8.4-4.9
		C211.8,162.7,217.1,153.6,219.2,150.4z"/>
</g>
<circle class="st0" cx="164.4" cy="150.8" r="114.2"/>
</svg>
