<?xml version="1.0" encoding="utf-8"?>
<!-- Generator: Adobe Illustrator 21.1.0, SVG Export Plug-In . SVG Version: 6.00 Build 0)  -->
<svg version="1.1" id="Layer_1" xmlns="http://www.w3.org/2000/svg" xmlns:xlink="http://www.w3.org/1999/xlink" x="0px" y="0px"
	 viewBox="0 0 575 452" style="enable-background:new 0 0 575 452;" xml:space="preserve">
<style type="text/css">
	.st0{stroke:#050000;stroke-width:5;stroke-miterlimit:10;}
	.st1{fill:none;stroke:#000000;stroke-width:5;stroke-miterlimit:10;}
</style>
<path class="st0" d="M255.8,209.1c5.7-15.8,0.2-28.2-2.2-32.6c6.6-16.3,0.8-29.5-1.6-33.9c6-16.9-1.2-30.2-2.7-32.7
	c-0.2-0.4-0.4-0.6-0.4-0.6l-0.5-0.7l-0.8,0.4c-11.1,5.5-19,13.5-23.5,23.8c-1.6,3.7-2.8,7.8-3.5,12.1c-0.1-0.2-0.2-0.3-0.4-0.5
	c-3.2-4-7.1-7.8-11.5-11.4l-1.2-1l-0.4,1.5c-0.1,0.2-5.4,19.9,0.4,38.8l-0.4,1.3c-0.2,0.7-5,18.3-0.3,36.5c-1.1,6.5-3.6,28,6.6,45.4
	l0.4,0.7c3.4,5.9,7,11.9,14.3,16.2c0,0.1,0,0.2,0.1,0.2c0.1,0.3,0.3,0.5,0.6,0.6c0.1,0,0.2,0.1,0.3,0.1c0.2,0,0.4-0.1,0.5-0.2
	c0.2-0.1,0.4-0.3,0.6-0.4c0.7-0.3,1.5-0.9,2-1.5C271,243.7,259.1,215.5,255.8,209.1z M254.4,206.9l-0.2-0.2l-0.8,0.4
	c-11.1,5.6-19,13.5-23.5,23.8c0,0.1-0.1,0.2-0.1,0.3c0,0,0,0,0-0.1c-0.5-1-1.1-1.9-1.6-2.9c-0.1-0.2-0.3-0.5-0.4-0.7
	c-0.5-0.8-1.1-1.7-1.6-2.5c-0.1-0.1-0.1-0.2-0.2-0.3c0-0.5,0-1.1-0.1-1.6c0-0.5-0.1-1.1-0.1-1.6c0-0.6,0-1.1,0-1.7c0-0.5,0-1,0-1.6
	c0-0.6,0.1-1.1,0.1-1.7c0-0.5,0.1-1,0.1-1.5c0.1-0.6,0.1-1.1,0.2-1.7c0.1-0.5,0.1-0.9,0.2-1.4c0.1-0.6,0.2-1.1,0.3-1.7
	c0.1-0.4,0.1-0.9,0.2-1.3c0.1-0.6,0.3-1.2,0.4-1.8c0.1-0.4,0.2-0.8,0.3-1.1c0.2-0.6,0.4-1.2,0.6-1.8c0.1-0.3,0.2-0.7,0.3-1
	c0.2-0.6,0.4-1.1,0.6-1.6c0.1-0.4,0.3-0.8,0.4-1.1c0,0,0,0,0,0l0.1-0.4l0,0c0,0,0-0.1,0-0.1c0.1-0.1,0.1-0.3,0.2-0.4
	c3.7-8.4,9.7-15.2,18.1-20.3c0.1-0.1,0.2-0.1,0.3-0.2c1.1-0.7,2.2-1.3,3.4-1.9C253.2,179.8,259.3,191.8,254.4,206.9z M252.1,174.8
	l-0.5,0.3c-1.4,0.7-2.7,1.4-3.9,2.2c-0.4,0.2-0.8,0.5-1.2,0.8c-0.8,0.5-1.7,1-2.4,1.6c-0.5,0.3-0.9,0.7-1.3,1c-0.7,0.5-1.4,1-2,1.6
	c-0.5,0.4-0.9,0.8-1.3,1.2c-0.6,0.5-1.2,1.1-1.7,1.6c-0.4,0.4-0.8,0.9-1.2,1.3c-0.5,0.6-1,1.1-1.5,1.7c-0.4,0.5-0.8,1-1.1,1.5
	c-0.5,0.6-0.9,1.2-1.3,1.8c-0.4,0.5-0.7,1-1,1.6c-0.4,0.6-0.8,1.2-1.1,1.9c-0.3,0.5-0.6,1.1-0.9,1.7c-0.2,0.5-0.5,0.9-0.7,1.4
	c0-0.1-0.1-0.1-0.1-0.2c-0.5-1.2-1.1-2.3-1.8-3.5c-0.1-0.3-0.3-0.5-0.5-0.8c-0.6-1.1-1.3-2.1-1.9-3.2c-0.1-0.1-0.1-0.2-0.2-0.3
	c0-0.6,0-1.2,0-1.8c0-0.5,0-1,0-1.4c0-0.6,0-1.2,0-1.8c0-0.5,0-1,0-1.5c0-0.6,0.1-1.1,0.1-1.7c0-0.5,0.1-1,0.1-1.5
	c0.1-0.5,0.1-1.1,0.2-1.6c0.1-0.5,0.1-1,0.2-1.5c0.1-0.5,0.2-1.1,0.3-1.6c0.1-0.5,0.2-1,0.3-1.4c0.1-0.5,0.3-1.1,0.4-1.6
	c0.1-0.4,0.2-0.9,0.3-1.3c0.2-0.6,0.4-1.1,0.6-1.7c0.1-0.4,0.2-0.7,0.4-1.1c0.3-0.9,0.7-1.8,1.1-2.7c0.3-0.6,0.5-1.2,0.9-1.8
	c0.3-0.6,0.6-1.2,1-1.9l0,0c4.4-7.8,11.1-14.1,19.9-18.7l0.1,0.1C252.1,146.9,258,159.2,252.1,174.8z M225.9,133.6
	c4.2-9.5,11.5-17.1,21.8-22.4c1.6,2.8,7.6,14.6,2.8,29.5l-0.6,0.3c-1.2,0.6-2.3,1.2-3.4,1.8c-0.4,0.2-0.7,0.5-1.1,0.7
	c-0.7,0.4-1.4,0.9-2.1,1.3c-0.4,0.3-0.8,0.6-1.2,0.9c-0.6,0.4-1.2,0.8-1.7,1.3c-0.4,0.3-0.8,0.7-1.2,1c-0.5,0.4-1,0.9-1.5,1.3
	c-0.4,0.4-0.8,0.7-1.1,1.1c-0.5,0.5-0.9,0.9-1.4,1.4c-0.4,0.4-0.7,0.8-1.1,1.2c-0.4,0.5-0.8,1-1.3,1.5c-0.3,0.4-0.7,0.8-1,1.2
	c-0.4,0.5-0.8,1-1.1,1.6c-0.3,0.4-0.6,0.9-0.9,1.3c-0.2,0.2-0.3,0.5-0.5,0.7c-0.1-0.3-0.3-0.7-0.5-1c-0.2-0.4-0.4-0.9-0.6-1.3
	c-0.4-0.7-0.7-1.5-1.1-2.2c-0.2-0.4-0.4-0.8-0.7-1.2c-0.5-0.9-1-1.7-1.6-2.6c-0.2-0.3-0.3-0.5-0.5-0.8c-0.7-1-1.4-2.1-2.2-3.1
	C222.9,142.2,224.1,137.7,225.9,133.6z M208.8,135.6c3.8,3.2,7.1,6.6,10,10.1c0.6,0.7,1.2,1.5,1.7,2.2c0.8,1.1,1.6,2.2,2.4,3.3
	c0.2,0.4,0.4,0.7,0.7,1.1c0.5,0.8,1,1.5,1.4,2.3c0.3,0.5,0.5,0.9,0.7,1.4c0.4,0.7,0.7,1.4,1.1,2.1c0.2,0.5,0.4,1,0.7,1.5
	c0.3,0.6,0.5,1.2,0.8,1.8c-0.2,0.3-0.3,0.7-0.5,1c-0.1,0.2-0.2,0.4-0.3,0.6c-0.3,0.6-0.6,1.2-0.9,1.8c-0.4,0.9-0.7,1.8-1.1,2.7
	c-0.1,0.3-0.2,0.6-0.3,0.9c-0.2,0.6-0.4,1.2-0.6,1.9c-0.1,0.4-0.2,0.7-0.3,1.1c-0.2,0.6-0.3,1.2-0.5,1.8c-0.1,0.4-0.2,0.8-0.3,1.2
	c-0.1,0.6-0.2,1.2-0.3,1.8c-0.1,0.4-0.1,0.8-0.2,1.2c-0.1,0.6-0.2,1.2-0.2,1.8c0,0.4-0.1,0.8-0.1,1.2c-0.1,0.6-0.1,1.3-0.2,2
	c0,0.4-0.1,0.8-0.1,1.2c0,0.8,0,1.5-0.1,2.3c0,0.3,0,0.6,0,0.9c0,0,0,0.1,0,0.1c-0.6-0.8-1.2-1.6-1.8-2.3c-0.7-0.9-1.4-1.7-2.2-2.6
	c-0.2-0.2-0.4-0.5-0.7-0.7c-0.6-0.6-1.1-1.2-1.7-1.9c-0.3-0.3-0.6-0.6-0.9-0.9c-0.5-0.5-1.1-1.1-1.7-1.6c-0.3-0.3-0.7-0.6-1.1-1
	c-0.5-0.5-1-1-1.6-1.4C204.5,158.4,207.6,140.8,208.8,135.6z M208.8,175.8l0.2,0.1c3.7,3.2,7.1,6.6,9.8,9.9c1.3,1.6,2.5,3.2,3.6,4.8
	c0.5,0.8,1,1.6,1.5,2.4c0.1,0.2,0.3,0.4,0.4,0.7c0.3,0.6,0.7,1.2,1,1.8c0.2,0.3,0.3,0.6,0.5,0.9c0.3,0.5,0.5,1,0.8,1.5
	c0.2,0.3,0.3,0.7,0.5,1c0.2,0.4,0.4,0.8,0.6,1.3c-0.7,1.7-1.3,3.5-1.8,5.3c-0.1,0.3-0.2,0.6-0.2,0.9c-0.2,0.7-0.3,1.3-0.5,2
	c-0.1,0.4-0.1,0.7-0.2,1.1c-0.1,0.6-0.2,1.2-0.3,1.9c-0.1,0.4-0.1,0.8-0.2,1.2c-0.1,0.6-0.2,1.2-0.2,1.9c0,0.4-0.1,0.8-0.1,1.2
	c-0.1,0.7-0.1,1.3-0.1,2c0,0.4,0,0.8-0.1,1.1c0,0.8,0,1.5,0,2.3c0,0.3,0,0.6,0,0.9c0,0,0,0.1,0,0.1c-0.1-0.1-0.1-0.2-0.2-0.2
	c-0.9-1.1-1.8-2.2-2.7-3.2c-3.4-3.8-7.5-7.4-12-10.8l-0.6-0.4C205.4,193.5,207.8,180.2,208.8,175.8z M215.7,255.3l-0.4-0.7
	c-10-17-7.4-38.2-6.3-44.2c0,0,0-0.1,0-0.1c3.9,3,7.4,6.3,10.5,9.6c1.7,1.9,3.2,3.8,4.7,5.8c0.5,0.7,0.9,1.3,1.4,2
	c0.2,0.3,0.3,0.5,0.5,0.8c0.3,0.4,0.5,0.8,0.8,1.2c0.2,0.3,0.3,0.6,0.5,0.9c0.2,0.4,0.4,0.8,0.7,1.2c0.2,0.3,0.3,0.6,0.5,0.9
	c0.2,0.3,0.3,0.7,0.5,1c-0.4,1-0.7,2-1,3c-0.1,0.3-0.2,0.7-0.3,1c-0.2,0.7-0.4,1.4-0.5,2.2c-0.1,0.6-0.2,1.1-0.3,1.7
	c-0.1,0.4-0.2,0.8-0.2,1.2c-2,11.5-0.2,22,1,26.9C221.8,265.8,218.8,260.6,215.7,255.3z M231.3,269.6l-0.9,0.6
	c-0.1,0.1-0.2,0.1-0.3,0.2c-1.1-3.8-3.9-16-1.2-29.2c0-0.2,0.1-0.4,0.1-0.7c0.2-0.8,0.4-1.7,0.6-2.5c0.1-0.3,0.1-0.6,0.2-0.8
	c0.3-1.1,0.7-2.1,1.1-3.2c0,0,0,0,0,0l0.2-0.5c0.2-0.6,0.5-1.2,0.7-1.8c4.2-9.5,11.5-17.1,21.8-22.4l0.2,0.4
	C256.8,215,269.3,242.5,231.3,269.6z"/>
<circle class="st1" cx="232.5" cy="191" r="114.2"/>
</svg>
