<svg xmlns="http://www.w3.org/2000/svg" xmlns:xlink="http://www.w3.org/1999/xlink" xml:space="preserve" version="1.1" style="shape-rendering:geometricPrecision;text-rendering:geometricPrecision;image-rendering:optimizeQuality;" viewBox="0 0 333 416.25" x="0px" y="0px" fill-rule="evenodd" clip-rule="evenodd"><defs><style type="text/css">
   
    .fil0 {fill:black;fill-rule:nonzero}
   
  </style></defs><g><path class="fil0" d="M275 74c5,-7 21,-13 25,-4 6,13 -2,23 11,48 26,49 -23,115 -94,138 -57,18 -119,19 -148,-19 -3,-4 -15,-19 -7,-24 -22,-17 -42,-56 -19,-53 -27,-25 -41,-81 -10,-65 56,29 119,63 190,31 40,-19 35,-36 52,-52zm7 30c0,39 -39,77 -72,94 -41,22 -117,22 -132,20 -9,-2 -15,-2 -9,7 7,12 27,31 60,35 57,7 142,-20 172,-77 13,-27 14,-52 0,-69 -10,-11 -2,-41 -7,-41 -5,0 -11,21 -12,31zm-211 107c42,1 87,0 125,-14 19,-7 43,-24 60,-46 17,-21 19,-32 20,-51 -10,41 -62,73 -100,80 -47,8 -127,-12 -127,-12 -21,-4 15,40 22,43zm200 -121c-11,18 -16,29 -46,42 -73,34 -139,-2 -197,-32l0 0c-16,-8 1,58 41,65 65,13 117,21 170,-23 27,-22 25,-30 32,-52z"/></g><text x="0" y="348" fill="#000000" font-size="5px" font-weight="bold" font-family="'Helvetica Neue', Helvetica, Arial-Unicode, Arial, Sans-serif">Created by novita hidayah</text><text x="0" y="353" fill="#000000" font-size="5px" font-weight="bold" font-family="'Helvetica Neue', Helvetica, Arial-Unicode, Arial, Sans-serif">from the Noun Project</text></svg>