<?xml version="1.0" encoding="utf-8"?>
<!-- Generator: Adobe Illustrator 21.1.0, SVG Export Plug-In . SVG Version: 6.00 Build 0)  -->
<svg version="1.1" id="Layer_1" xmlns="http://www.w3.org/2000/svg" xmlns:xlink="http://www.w3.org/1999/xlink" x="0px" y="0px"
	 viewBox="0 0 415 366" style="enable-background:new 0 0 415 366;" xml:space="preserve">
<style type="text/css">
	.st0{fill:none;stroke:#000000;stroke-width:5;stroke-miterlimit:10;}
</style>
<g>
	<g>
		<path d="M284,287.2c-3.6-1.7-16.5-4.1-30.7-5.7c-3.8-0.4-7-1.1-10-2.1c1.3-2.8,2.9-4.4,3-4.4c0.9-0.8,1-2.2,0.2-3.1
			c-0.8-0.9-2.2-1-3.1-0.2c-0.1,0.1-2.4,2.2-4.1,6c-4.8-2.3-10-5.8-17.9-11.1c-2.8-1.9-6-4-9.5-6.4c-22.5-15-38.4-32.2-42.5-38.2
			c-2.3-3.4-2.7-8.4-0.9-12.3c0.8-1.7,2.7-4.6,6.8-5c4.7-0.4,9.8,0.7,15.2,3.4c2.4,1.2,4.9,2.6,7.4,4.3c-1.2,1.2-2.4,3.1-3.4,4.6
			c-0.6,1-0.3,2.4,0.7,3c0.4,0.2,0.8,0.3,1.2,0.3c0.7,0,1.5-0.4,1.9-1c1.2-1.9,2.6-3.8,3-4.2c0.1-0.1,0.2-0.2,0.4-0.3
			c0.9,0.6,1.8,1.2,2.7,1.9c4.6,3.4,9,7.1,13.3,10.7l2.1,1.8c2.9,2.4,5.9,4.7,8.8,6.9c2.1,1.6,4.1,3.1,6.1,4.8
			c6.6,5.3,14.9,12.4,21,21.2c5.7,8.2,11.5,16,20,21c1,0.6,2.4,0.3,3-0.8c0.6-1,0.3-2.4-0.8-3c-7.7-4.6-13.2-12-18.6-19.8
			c-6.4-9.3-15.1-16.7-21.9-22.2c-2.1-1.6-4.1-3.2-6.2-4.8c-2.9-2.2-5.8-4.4-8.6-6.8l-2.1-1.8c-4.4-3.7-8.9-7.4-13.5-10.9
			c-5.1-3.8-9.9-6.8-14.5-9.1c-5.1-2.6-10.1-3.9-14.8-3.9c-1.2-2-2.3-4.1-3.5-6.1c-0.4-0.7-0.9-1.4-1.3-2.2
			c-1.8-2.9-3.4-5.6-4.4-8.7c-0.9-2.8-1.6-5.8-2.4-9.1c-0.3-1.2-1.4-1.9-2.6-1.7c-1.2,0.3-1.9,1.4-1.7,2.6c0.8,3.4,1.6,6.5,2.5,9.4
			c1.1,3.7,3,6.8,4.9,9.8c0.4,0.7,0.9,1.4,1.3,2.1c0.9,1.4,1.7,2.9,2.5,4.3c-0.5,0.1-1,0.3-1.5,0.5c-2.5-3.8-9.6-11.2-13.7-13.9
			c-0.7-0.5-1.5-0.9-2.5-1.2c-0.9-2.9-3-10.5-2.3-14.2c1.2-6.5,2.9-7.2,4.6-7.1c1.2,0.1,2.3-0.8,2.4-2c0.1-1.2-0.8-2.3-2-2.4
			c-7.2-0.6-8.7,7.6-9.3,10.7c-0.7,3.8,0.6,9.8,1.6,13.4c-4.7-1.1-10.4-1.7-15.5-2.1l-0.4,0c-4-0.4-13-1.9-13.1-1.9
			c-1.2-0.2-2.3,0.6-2.5,1.8c-0.2,1.2,0.6,2.3,1.8,2.5c0.4,0.1,9.3,1.6,13.4,1.9l0.4,0c11.1,1,18.2,2.4,20.9,4.2
			c4.1,2.7,10.9,10.1,12.4,12.6c-0.4,0.4-0.8,0.8-1.2,1.2c-1.2-0.4-3.3-1.1-5.6-1.9c-1.1-5.4-10.6-10.1-13.6-11.5
			c-1.1-0.5-2.4,0-2.9,1.1c-0.5,1.1,0,2.4,1.1,2.9c3.2,1.5,6.7,3.6,8.9,5.5c-1.5-0.4-2.8-0.8-4-1.1c-5.4-1.3-9.6-3.8-13.2-7.8
			c-0.8-0.9-2.2-1-3.1-0.2c-0.9,0.8-1,2.2-0.2,3.1c0.5,0.6,1,1.1,1.6,1.6c-0.7,0.1-1.4,0.1-2.1,0.2c-1,0.1-1.9,0.2-2.7,0.2
			c-3.8,0.2-7.6,0.6-11.3,1l-2.3,0.2c-1.2,0.1-2.1,1.2-2,2.4c0.1,1.1,1.1,2,2.2,2c0.1,0,0.1,0,0.2,0l2.3-0.2c3.6-0.4,7.4-0.8,11.1-1
			c0.8,0,1.8-0.1,2.8-0.3c2.6-0.3,5.7-0.6,7.7-0.1c2.4,1.3,4.9,2.3,7.8,3c4,1,11.4,3.4,14.9,4.6c-0.4,0.9-0.7,1.9-0.9,2.9
			c-4.3-1.4-15.5-5.1-19-6.6c-4.8-2.1-11.7-2.4-12-2.4c-1.2-0.1-2.2,0.9-2.3,2.1c0,1.2,0.9,2.2,2.1,2.3c0.1,0,6.4,0.3,10.5,2
			s17.2,6,20.4,7.1c0.2,3,1.1,6,2.8,8.4c3.4,4.9,18.8,22.7,43.7,39.3c3.6,2.4,6.7,4.5,9.5,6.4c15.3,10.4,21,14.2,33.9,15.7
			c14.8,1.7,26.5,4,29.3,5.3c0.3,0.1,0.6,0.2,0.9,0.2c0.8,0,1.6-0.5,2-1.3C285.6,289,285.1,287.7,284,287.2z"/>
		<path d="M163.9,168.8c0.3-0.3,0.7-0.7,1-0.9c1.2,0.6,4.1,2.6,5.5,11.7c0.2,1.1,1.1,1.8,2.2,1.8c0.1,0,0.2,0,0.3,0
			c1.2-0.2,2-1.3,1.8-2.5c-1.9-11.9-6.4-14.2-8.3-15.1c-2.5-1.3-5.1,1.2-5.9,2c-0.8,0.9-0.8,2.3,0.1,3.1
			C161.7,169.8,163.1,169.7,163.9,168.8z"/>
		<path d="M173.2,187.3c0.8,0.9,2.1,1.1,3.1,0.3c0.7-0.5,2-1.2,2.6-1c0.3,0.1,0.5,0.7,0.6,0.9c1.1,3.2-1.6,5.4-1.7,5.5
			c-0.9,0.8-1.1,2.1-0.4,3.1c0.4,0.5,1.1,0.8,1.7,0.8c0.5,0,1-0.2,1.4-0.5c0.2-0.2,5.2-4.2,3.1-10.4c-0.8-2.4-2.4-3.3-3.5-3.6
			c-3-0.9-6,1.4-6.5,1.8C172.6,184.9,172.4,186.3,173.2,187.3z"/>
		<path d="M109.8,185.5C109.9,185.5,109.9,185.5,109.8,185.5c1.3,0,2.2-1,2.2-2.2c0-1.4,0.3-2.5,1.1-3.1c1.5-1.3,4.3-1.3,5.3-1.2
			c1.2,0.1,2.3-0.7,2.5-1.9c0.2-1.2-0.7-2.3-1.9-2.5c-0.6-0.1-5.5-0.6-8.8,2.3c-1.2,1.1-2.6,3.1-2.5,6.5
			C107.7,184.6,108.7,185.5,109.8,185.5z"/>
		<path d="M110.2,193.5c1.9,1.4,4.6,2.2,8.1,2.2c2.4,0,5.2-0.3,8.3-1c1.2-0.3,1.9-1.4,1.7-2.6c-0.3-1.2-1.4-1.9-2.6-1.7
			c-8.2,1.7-11.5,0.6-12.7-0.2c-0.8-0.5-0.9-1-0.9-1.1c-0.1-1.2-1.1-2-2.3-2c-1.2,0.1-2.1,1.1-2.1,2.3
			C107.8,189.7,108,191.8,110.2,193.5z"/>
		<path d="M125.3,203c-1.9,0.8-7.4,2.6-11,1.3c-1.2-0.5-1.5-1.1-1.6-1.3c-0.4-1,0.1-2.4,0.4-2.8c0.6-1.1,0.1-2.4-0.9-3
			c-1.1-0.6-2.4-0.2-3,0.9c-0.2,0.3-1.7,3.4-0.6,6.4c0.5,1.2,1.6,2.9,4.1,3.8c1.4,0.5,2.9,0.7,4.5,0.7c4.8,0,9.5-2,9.8-2.1
			c1.1-0.5,1.6-1.8,1.1-2.9C127.7,203,126.4,202.5,125.3,203z"/>
		<path d="M128.5,180.1c1-0.7,1.3-2,0.7-3c-0.5-0.8-1-2.1-0.7-2.8c0.2-0.4,0.9-0.7,2-0.9c3.2-0.5,4.7,1.3,7.1,4.4
			c1,1.4,2.1,2.8,3.5,3.9c0.4,0.3,0.9,0.5,1.4,0.5c0.6,0,1.3-0.3,1.7-0.8c0.8-0.9,0.6-2.3-0.3-3.1c-1-0.8-1.9-1.9-2.8-3.2
			c0,0,0,0-0.1-0.1c0.1-0.4,1-2.2,3.7-3.1c1.1-0.4,1.7-1.7,1.3-2.8c-0.4-1.1-1.7-1.7-2.8-1.3c-2.5,0.9-4.2,2.4-5.2,3.8
			c-1.9-1.8-4.5-3.1-8.2-2.5c-3.4,0.5-4.8,2.1-5.4,3.4c-1.4,3.1,0.8,6.6,1,7C126.1,180.5,127.5,180.8,128.5,180.1z"/>
		<path d="M205.4,233.7c-2.1,2.9-2.1,3.5-2.1,4c0,1.2,1,2.2,2.2,2.2c1,0,1.9-0.7,2.1-1.7c0.2-0.4,0.8-1.2,1.3-2
			c0.7-1,0.5-2.4-0.5-3.1C207.5,232.5,206.1,232.7,205.4,233.7z"/>
		<path d="M223.1,250.1c-0.9,1.5-1.5,2.5-1.7,3c-0.4,1.1,0.2,2.3,1.3,2.7c0.2,0.1,0.5,0.1,0.7,0.1c0.9,0,1.7-0.5,2.1-1.4
			c0.1-0.3,0.7-1.3,1.3-2.1c0.7-1,0.3-2.4-0.7-3C225.1,248.8,223.8,249.1,223.1,250.1z"/>
		<path d="M240,257c-1.6,1.4-3.2,3.7-3.4,4c-0.7,1-0.4,2.4,0.6,3c0.4,0.3,0.8,0.4,1.2,0.4c0.7,0,1.4-0.3,1.8-1
			c0.4-0.6,1.6-2.2,2.6-3.1c0.9-0.8,1-2.2,0.2-3.1C242.3,256.3,240.9,256.2,240,257z"/>
		<path d="M255.7,271.6c-0.2,0.3-2.2,2.8-3,5.1c-0.4,1.1,0.2,2.4,1.4,2.8c0.2,0.1,0.5,0.1,0.7,0.1c0.9,0,1.8-0.6,2.1-1.5
			c0.5-1.3,1.8-3.2,2.3-3.8c0.7-0.9,0.6-2.3-0.4-3.1C257.9,270.5,256.5,270.6,255.7,271.6z"/>
		<path d="M180.8,216.6c-0.3,0.3-1.9,1.9-2.4,3.6c-0.4,1.2,0.3,2.4,1.4,2.7c0.2,0.1,0.4,0.1,0.6,0.1c0.9,0,1.8-0.6,2.1-1.5
			c0.1-0.4,0.8-1.2,1.3-1.7c0.9-0.9,0.8-2.2,0-3.1C183.1,215.7,181.7,215.7,180.8,216.6z"/>
		<path d="M215.2,248.9c-0.1,0.1-1.5,2.1-2.4,3.9c-0.5,1.1-0.1,2.4,1,2.9c0.3,0.2,0.6,0.2,1,0.2c0.8,0,1.6-0.4,2-1.2
			c0.7-1.5,2-3.3,2-3.3c0.7-1,0.5-2.4-0.5-3.1C217.2,247.6,215.9,247.9,215.2,248.9z"/>
	</g>
</g>
<circle class="st0" cx="196.5" cy="225.9" r="114.2"/>
</svg>
