<svg xmlns="http://www.w3.org/2000/svg" xmlns:xlink="http://www.w3.org/1999/xlink" version="1.1" x="0px" y="0px" viewBox="0 0 100 125" style="enable-background:new 0 0 100 100;" xml:space="preserve"><g><path d="M76.5,65.2H35.6V24.3c0-0.6-0.4-1-1-1s-1,0.4-1,1v10.2H23.5c-0.6,0-1,0.4-1,1s0.4,1,1,1h10.2v29.7c0,0.6,0.4,1,1,1h29.7   v10.2c0,0.6,0.4,1,1,1s1-0.4,1-1V67.2h10.2c0.6,0,1-0.4,1-1S77.1,65.2,76.5,65.2z"/><path d="M65.4,60.5c0.6,0,1-0.4,1-1v-24c0-0.6-0.4-1-1-1h-24c-0.6,0-1,0.4-1,1s0.4,1,1,1h23v23C64.4,60.1,64.8,60.5,65.4,60.5z"/></g><text x="0" y="115" fill="#000000" font-size="5px" font-weight="bold" font-family="'Helvetica Neue', Helvetica, Arial-Unicode, Arial, Sans-serif">Created by mikicon</text><text x="0" y="120" fill="#000000" font-size="5px" font-weight="bold" font-family="'Helvetica Neue', Helvetica, Arial-Unicode, Arial, Sans-serif">from the Noun Project</text></svg>