<svg xmlns="http://www.w3.org/2000/svg" xmlns:xlink="http://www.w3.org/1999/xlink" version="1.1" x="0px" y="0px" viewBox="0 0 100 125" style="enable-background:new 0 0 100 100;" xml:space="preserve"><path d="M65.3,56.9c-0.4-0.2-0.9-0.1-1.2,0.4l-4.1,7.7c-0.1,0.2-0.3,0.3-0.5,0.2c-0.6,0-1.2,0.2-1.6,0.6  c-2.3,2.1-5.4,5.8-7.1,11.2V71l0.8-0.6c8.1-6.7,8.6-14.8,8.2-19.1c0-0.5-0.3-1-0.6-1.3l3.7-8.3c0.2-0.4,0-0.9-0.4-1.1  c-0.4-0.2-1,0-1.1,0.4l-3.6,8c-0.1,0.2-0.3,0.3-0.4,0.3c-0.6,0-1.1,0.3-1.5,0.7c-1.6,1.6-3.7,4.3-5,8v-6.7l0.7-0.7  c6.6-6,6.8-13,6.3-16.6c-0.1-0.5-0.3-0.9-0.6-1.2c-0.1-0.1-0.2-0.3-0.1-0.5l2.8-8.6c0.1-0.5-0.1-0.9-0.6-1.1  c-0.5-0.1-0.9,0.1-1.1,0.6l-2.7,8.5c-0.1,0.2-0.2,0.3-0.4,0.3c-0.6,0.1-1.1,0.4-1.4,0.8c-0.9,1.1-2.1,2.7-2.9,4.8v-3.5  c0-0.2,0.1-0.3,0.3-0.4c0.4-0.2,0.8-0.6,1-1.1c2.8-6.5,1.2-12.2,0-14.9v0c-0.2-0.5-0.6-0.9-1-1.1c-0.2-0.1-0.3-0.2-0.3-0.4V5.9  C50.9,5.4,50.5,5,50,5s-0.9,0.4-0.9,0.9v10.3c0,0.2-0.1,0.3-0.3,0.4c-0.4,0.2-0.8,0.6-1,1.1c-1.2,2.8-2.8,8.4,0,14.9  c0.2,0.5,0.6,0.9,1,1.1c0.2,0.1,0.3,0.2,0.3,0.4v3.5c-0.9-2.1-2-3.7-2.9-4.8c-0.4-0.5-0.9-0.7-1.4-0.8c-0.2,0-0.4-0.1-0.4-0.3  l-2.7-8.5c-0.1-0.5-0.6-0.7-1.1-0.6c-0.5,0.1-0.7,0.6-0.6,1.1l2.8,8.6c0.1,0.2,0,0.3-0.1,0.5c-0.3,0.3-0.5,0.7-0.6,1.2  c-0.5,3.6-0.2,10.5,6.3,16.6l0.7,0.7v6.7c-1.3-3.7-3.4-6.4-5-8c-0.4-0.4-1-0.7-1.5-0.7c-0.2,0-0.4-0.1-0.4-0.3l-3.6-8  c-0.2-0.4-0.7-0.6-1.1-0.4c-0.4,0.2-0.6,0.7-0.4,1.1l3.7,8.3c-0.3,0.4-0.5,0.8-0.6,1.3c-0.4,4.2,0.1,12.4,8.2,19.1l0.8,0.6V77  c-1.7-5.4-4.8-9.1-7.1-11.2c-0.5-0.4-1-0.6-1.6-0.6c-0.2,0-0.4-0.1-0.5-0.2l-4.1-7.7c-0.2-0.4-0.8-0.6-1.2-0.4  c-0.4,0.2-0.6,0.7-0.4,1.2l4.3,8c-0.3,0.4-0.4,0.8-0.5,1.3c-0.3,5,0.6,14.7,10.5,22.3l0.6,0.4v4c0,0.5,0.4,0.9,0.9,0.9  s0.9-0.4,0.9-0.9v-4l0.6-0.4c9.8-7.6,10.8-17.3,10.5-22.3c0-0.5-0.2-0.9-0.5-1.3l4.3-8C65.9,57.6,65.7,57.1,65.3,56.9z M57.1,51.1  c0.1-0.1,0.3-0.2,0.4-0.2c0.1,0,0.2,0,0.2,0c0.1,0,0.4,0.2,0.4,0.5c0.3,3.5,0,10-5.7,15.8c-0.3,0.3-0.8,0.1-0.9-0.3  C50.8,59,54.6,53.7,57.1,51.1z M55.1,33.9c0.2-0.2,0.3-0.2,0.5-0.2c0.1,0,0.1,0,0.2,0c0.1,0,0.4,0.2,0.4,0.5c0.4,2.9,0.2,8.2-4,13.2  c-0.3,0.3-0.8,0.2-0.9-0.3C50.5,40.6,53.2,36.1,55.1,33.9z M48.7,47.1c-0.1,0.4-0.6,0.6-0.9,0.3c-4.2-5-4.3-10.3-4-13.2  c0-0.4,0.3-0.5,0.4-0.5c0.1,0,0.4-0.1,0.6,0.2C46.8,36.1,49.5,40.6,48.7,47.1z M48.5,67c0,0.4-0.6,0.6-0.9,0.3  c-5.7-5.8-6.1-12.3-5.7-15.8c0-0.3,0.3-0.5,0.4-0.5c0.1,0,0.4-0.1,0.6,0.1C45.4,53.7,49.2,59,48.5,67z M48.5,86.3  c0,0.4-0.5,0.6-0.9,0.3c-7.3-6.8-8.1-14.8-7.8-19.1c0-0.4,0.3-0.5,0.4-0.5c0.1,0,0.4-0.1,0.6,0.1C44.1,70,49.1,76.3,48.5,86.3z   M49.4,18.4c0.1-0.3,0.4-0.4,0.6-0.4c0,0,0,0,0,0c0,0,0,0,0,0c0.1,0,0.4,0,0.6,0.4c1.3,3.1,2.4,7.9,0,13.6c-0.1,0.3-0.5,0.3-0.5,0.3  c0,0-0.4,0-0.5-0.3C47,26.3,48.1,21.4,49.4,18.4z M52.3,86.6c-0.3,0.3-0.8,0.1-0.9-0.3c-0.6-10,4.4-16.3,7.6-19.2  c0.1-0.1,0.3-0.2,0.4-0.2c0.1,0,0.2,0,0.2,0c0.1,0,0.4,0.2,0.4,0.5C60.4,71.8,59.7,79.8,52.3,86.6z"/><text x="0" y="115" fill="#000000" font-size="5px" font-weight="bold" font-family="'Helvetica Neue', Helvetica, Arial-Unicode, Arial, Sans-serif">Created by Agniraj Chatterji</text><text x="0" y="120" fill="#000000" font-size="5px" font-weight="bold" font-family="'Helvetica Neue', Helvetica, Arial-Unicode, Arial, Sans-serif">from the Noun Project</text></svg>